<svg width="9" height="13" viewBox="0 0 9 13" fill="none"
     xmlns="http://www.w3.org/2000/svg">
  <path d="M1.875 10.0003H1L1 9.12527H1.875L1.875 10.0003ZM4.9375 10.0003H4.0625L4.0625 9.12527H4.9375L4.9375 10.0003ZM8 10.0003H7.125V9.12527H8V10.0003ZM1.875 6.93777H1L1 6.06277H1.875V6.93777ZM4.9375 6.93777H4.0625V6.06277H4.9375V6.93777ZM8 6.93777L7.125 6.93777V6.06277L8 6.06277V6.93777ZM1.875 3.87527H1L1 3.00027H1.875V3.87527ZM4.9375 3.87527H4.0625V3.00027H4.9375V3.87527ZM8 3.87527L7.125 3.87527V3.00027L8 3.00027V3.87527Z"
        fill="#F0F0FA"/>
</svg>