<!DOCTYPE svg PUBLIC "-//W3C//DTD SVG 1.1//EN" "http://www.w3.org/Graphics/SVG/1.1/DTD/svg11.dtd">
<!-- Uploaded to: SVG Repo, www.svgrepo.com, Transformed by: SVG Repo Mixer Tools -->
<svg fill="#c9c9c9" height="100px" width="100px" version="1.1" id="Capa_1" xmlns="http://www.w3.org/2000/svg" xmlns:xlink="http://www.w3.org/1999/xlink" viewBox="0 0 460.77 460.77" xml:space="preserve" stroke="#c9c9c9" stroke-width="0.00460775">
<g id="SVGRepo_bgCarrier" stroke-width="0" transform="translate(230.3875,230.3875), scale(0)">
<path transform="translate(0, 0), scale(14.3990625)" d="M16,29.87434611329809C19.40661968230529,29.906188321799416,20.883127851355226,25.697063936470272,23.387772068913698,23.387772068913698C26.099026169320105,20.887985072798443,30.765497481986966,19.67695626475974,31.04803323186934,16C31.333491029610045,12.285015831928597,27.627265312223987,9.578883550911868,24.617619527295567,7.382380472704435C22.116334659633537,5.556889931988199,19.08042847919839,5.3335421143415,16,5.017627429682761C12.347910626070997,4.643085812923475,8.234535954866477,3.0642116056525337,5.412824335309276,5.412824335309272C2.508817861149758,7.829934051605128,2.1107566019753907,12.28608124862427,2.8053647582419217,15.999999999999998C3.4026419082755877,19.193511028147373,6.510141683671718,20.896689151418716,8.749058284918403,23.250941715081595C11.094236057168537,25.71692940729432,12.597068565241639,29.842538379425086,16,29.87434611329809" fill="#000000" strokewidth="0"/>
</g>
<g id="SVGRepo_tracerCarrier" stroke-linecap="round" stroke-linejoin="round" stroke="#CCCCCC" stroke-width="4.60775"/>
<g id="SVGRepo_iconCarrier"> <path d="M285.08,230.397L456.218,59.27c6.076-6.077,6.076-15.911,0-21.986L423.511,4.565c-2.913-2.911-6.866-4.55-10.992-4.55 c-4.127,0-8.08,1.639-10.993,4.55l-171.138,171.14L59.25,4.565c-2.913-2.911-6.866-4.55-10.993-4.55 c-4.126,0-8.08,1.639-10.992,4.55L4.558,37.284c-6.077,6.075-6.077,15.909,0,21.986l171.138,171.128L4.575,401.505 c-6.074,6.077-6.074,15.911,0,21.986l32.709,32.719c2.911,2.911,6.865,4.55,10.992,4.55c4.127,0,8.08-1.639,10.994-4.55 l171.117-171.12l171.118,171.12c2.913,2.911,6.866,4.55,10.993,4.55c4.128,0,8.081-1.639,10.992-4.55l32.709-32.719 c6.074-6.075,6.074-15.909,0-21.986L285.08,230.397z"/> </g>
</svg>